<?xml version="1.0" encoding="iso-8859-1"?>
<!-- Generator: Adobe Illustrator 19.0.0, SVG Export Plug-In . SVG Version: 6.00 Build 0)  -->
<svg version="1.1" id="Capa_1" xmlns="http://www.w3.org/2000/svg" xmlns:xlink="http://www.w3.org/1999/xlink" x="0px" y="0px"
	 viewBox="0 0 480 480" style="enable-background:new 0 0 480 480;" xml:space="preserve">
<g>
	<g>
		<path d="M104,327.978c-13.255,0-24,10.745-24,24s10.745,24,24,24s24-10.745,24-24S117.255,327.978,104,327.978z M104,359.978
			c-4.418,0-8-3.582-8-8s3.582-8,8-8s8,3.582,8,8S108.418,359.978,104,359.978z"/>
	</g>
</g>
<g>
	<g>
		<path d="M376,327.978c-13.255,0-24,10.745-24,24s10.745,24,24,24s24-10.745,24-24S389.255,327.978,376,327.978z M376,359.978
			c-4.418,0-8-3.582-8-8s3.582-8,8-8s8,3.582,8,8S380.418,359.978,376,359.978z"/>
	</g>
</g>
<g>
	<g>
		<path d="M192,191.978h-40c-3.032-0.001-5.805,1.712-7.16,4.424l-24,48c-1.237,2.478-1.103,5.42,0.352,7.776
			c1.457,2.362,4.033,3.8,6.808,3.8h64c4.418,0,8-3.582,8-8v-48C200,195.56,196.418,191.978,192,191.978z M184,239.978h-43.056
			l16-32H184V239.978z"/>
	</g>
</g>
<g>
	<g>
		<path d="M426.52,196.682c-10.86,7.239-13.796,21.911-6.557,32.771c4.384,6.577,11.765,10.526,19.669,10.525h16.736
			c13.046-0.013,23.619-10.586,23.632-23.632v-8.368h-16v8.368c-0.004,4.213-3.419,7.628-7.632,7.632h-16.736
			c-4.215,0.001-7.633-3.416-7.633-7.631c0-2.553,1.276-4.938,3.401-6.353l17.04-11.36c2.225-1.484,3.56-3.982,3.56-6.656v-96
			c-0.14-13.413-11.127-24.173-24.54-24.033c-7.162,0.075-13.926,3.307-18.484,8.833L293.6,225.282l-24.888-49.784
			c12.99-2.637,21.382-15.306,18.745-28.296C285.19,136.04,275.39,128.008,264,127.978h-48c-13.255,0-24,10.745-24,24
			c0.027,2.732,0.524,5.438,1.472,8h-50.64c-12.132-0.039-23.232,6.82-28.624,17.688l-31.616,63.2l-50.4,10.088
			C15.009,254.46,2.113,268.75,0.384,286.202c-0.2,0.574-0.328,1.171-0.384,1.776v64c0,4.418,3.582,8,8,8h40.64
			c4.391,30.574,32.736,51.8,63.311,47.409c24.574-3.529,43.88-22.836,47.409-47.409H296c3.047,0.017,5.838-1.699,7.2-4.424
			l21.744-43.576h11.944c-22.134,21.601-22.567,57.056-0.966,79.19s57.056,22.567,79.19,0.966
			c22.135-21.601,22.567-57.056,0.966-79.19c-0.318-0.326-0.64-0.648-0.966-0.966h11.944l21.784,43.576
			c1.355,2.712,4.128,4.425,7.16,4.424h16c4.418,0,8-3.582,8-8v-88c0-4.418-3.582-8-8-8H351.368L440,129.354v58.344L426.52,196.682z
			 M291.056,255.978h-29.288l-26.664-80h15.952L291.056,255.978z M244.904,255.978H232v-38.712L244.904,255.978z M16,295.978h32v16
			H16V295.978z M52.56,329.882c-0.248,0.576-0.448,1.176-0.68,1.76c-0.408,1.04-0.8,2.08-1.152,3.144
			c-0.224,0.68-0.4,1.376-0.592,2.064c-0.288,1.008-0.56,2.024-0.8,3.056c-0.16,0.736-0.288,1.488-0.424,2.232
			c-0.112,0.616-0.264,1.216-0.352,1.84H16v-16h37.464C53.16,328.61,52.84,329.234,52.56,329.882z M104,391.978
			c-22.091,0-40-17.909-40-40c0-22.091,17.909-40,40-40s40,17.909,40,40C143.974,374.058,126.08,391.952,104,391.978z M216,263.978
			v80h-56.568c-0.088-0.616-0.24-1.216-0.352-1.832c-0.136-0.752-0.264-1.504-0.424-2.248c-0.232-1.024-0.504-2.04-0.8-3.048
			c-0.192-0.688-0.368-1.384-0.592-2.064c-0.344-1.064-0.744-2.104-1.152-3.144c-0.232-0.584-0.432-1.184-0.68-1.76
			c-0.528-1.216-1.12-2.4-1.728-3.576c-0.192-0.36-0.352-0.744-0.544-1.104c-0.837-1.525-1.741-3.011-2.712-4.456
			c-0.152-0.224-0.32-0.424-0.472-0.648c-0.84-1.192-1.704-2.4-2.624-3.496c-0.352-0.44-0.744-0.84-1.112-1.264
			c-0.76-0.88-1.528-1.744-2.336-2.576c-0.456-0.464-0.944-0.896-1.416-1.344c-0.8-0.736-1.552-1.464-2.4-2.16
			c-0.536-0.448-1.08-0.872-1.6-1.296c-0.8-0.64-1.6-1.264-2.464-1.848c-0.592-0.416-1.192-0.8-1.8-1.2
			c-0.848-0.544-1.712-1.072-2.592-1.6c-0.632-0.36-1.272-0.712-1.928-1.048c-0.896-0.472-1.808-0.904-2.736-1.328
			c-0.664-0.296-1.336-0.6-2.016-0.872c-0.952-0.392-1.928-0.736-2.904-1.072c-0.688-0.232-1.376-0.48-2.072-0.688
			c-1.032-0.304-2.08-0.552-3.128-0.8c-0.68-0.16-1.352-0.336-2.04-0.472c-1.176-0.232-2.4-0.392-3.568-0.552
			c-0.592-0.072-1.168-0.184-1.768-0.24c-1.792-0.16-3.624-0.264-5.472-0.264s-3.68,0.104-5.48,0.28
			c-0.6,0.056-1.176,0.168-1.768,0.24c-1.2,0.16-2.4,0.32-3.568,0.552c-0.688,0.136-1.36,0.312-2.032,0.472
			c-1.056,0.248-2.104,0.504-3.136,0.8c-0.696,0.208-1.384,0.456-2.072,0.688c-0.976,0.336-1.952,0.68-2.904,1.072
			c-0.68,0.272-1.352,0.576-2.016,0.872c-0.928,0.424-1.84,0.856-2.736,1.328c-0.656,0.336-1.288,0.688-1.928,1.048
			c-0.88,0.504-1.744,1.032-2.6,1.6c-0.6,0.392-1.2,0.8-1.784,1.192c-0.848,0.592-1.664,1.216-2.48,1.856
			c-0.544,0.424-1.088,0.848-1.6,1.296c-0.8,0.696-1.6,1.424-2.4,2.16c-0.472,0.448-0.96,0.88-1.416,1.344L64,312.85v-24.872
			c0-4.418-3.582-8-8-8H18.4c3.219-6.851,9.481-11.782,16.896-13.304L89.6,255.818c2.425-0.48,4.492-2.054,5.6-4.264l33.36-66.736
			c2.692-5.418,8.222-8.843,14.272-8.84H216V263.978z M208,151.978c0-4.418,3.582-8,8-8h48c4.418,0,8,3.582,8,8s-3.582,8-8,8h-48
			C211.582,159.978,208,156.396,208,151.978z M416,351.978c0,22.091-17.909,40-40,40c-22.091,0-40-17.909-40-40
			c0-22.091,17.909-40,40-40C398.08,312.004,415.974,329.898,416,351.978z M464,271.978v72h-3.056L439.2,300.402
			c-1.362-2.725-4.153-4.441-7.2-4.424H320c-3.047-0.017-5.838,1.699-7.2,4.424l-21.744,43.576H232v-72H464z M438.496,103.602
			L331.832,255.978h-22.888l-3.664-7.336l-3.856-7.72L425.28,90.994c2.924-3.539,8.163-4.038,11.702-1.114
			c1.912,1.579,3.019,3.93,3.018,6.41v2.544C440.002,100.54,439.477,102.206,438.496,103.602z"/>
	</g>
</g>
<g>
	<g>
		<rect x="168" y="271.978" width="32" height="16"/>
	</g>
</g>
<g>
</g>
<g>
</g>
<g>
</g>
<g>
</g>
<g>
</g>
<g>
</g>
<g>
</g>
<g>
</g>
<g>
</g>
<g>
</g>
<g>
</g>
<g>
</g>
<g>
</g>
<g>
</g>
<g>
</g>
</svg>
